<?xml version="1.0" encoding="UTF-8" standalone="no"?>
<svg
   xmlns:dc="http://purl.org/dc/elements/1.1/"
   xmlns:cc="http://creativecommons.org/ns#"
   xmlns:rdf="http://www.w3.org/1999/02/22-rdf-syntax-ns#"
   xmlns:svg="http://www.w3.org/2000/svg"
   xmlns="http://www.w3.org/2000/svg"
   width="96mm"
   height="96mm"
   viewBox="0 0 96 96"
   version="1.1"
   id="svg4433">
  <defs
     id="defs4427">
    <filter
       id="filter4409"
       style="color-interpolation-filters:sRGB">
      <feFlood
         id="feFlood4399"
         result="flood"
         flood-color="rgb(3,5,33)"
         flood-opacity="0.905882" />
      <feComposite
         id="feComposite4401"
         result="composite1"
         operator="in"
         in2="SourceGraphic"
         in="flood" />
      <feGaussianBlur
         id="feGaussianBlur4403"
         result="blur"
         stdDeviation="0.5"
         in="composite1" />
      <feOffset
         id="feOffset4405"
         result="offset"
         dy="0.5"
         dx="0.5" />
      <feComposite
         id="feComposite4407"
         result="composite2"
         operator="over"
         in2="offset"
         in="SourceGraphic" />
    </filter>
  </defs>
  <metadata
     id="metadata4430">
    <rdf:RDF>
      <cc:Work
         rdf:about="">
        <dc:format>image/svg+xml</dc:format>
        <dc:type
           rdf:resource="http://purl.org/dc/dcmitype/StillImage" />
        <dc:title></dc:title>
      </cc:Work>
    </rdf:RDF>
  </metadata>
  <g
     id="layer1">
    <path
       transform="matrix(1.1654286,0,0,1.1654287,-58.925289,-140.42785)"
       id="path98-3-5"
       d="m 101.8549,191.01913 c 0.2928,-1.16288 0.3345,-2.55336 -0.0607,-3.70056 l -0.5551,-1.26144 2.2079,-0.0492 2.20792,-0.0492 c 0,0 1.47218,-0.0246 2.20792,-0.0492 0.49119,-0.0165 0.95616,0.006 1.43951,-0.0826 0.34418,-0.0633 0.74679,-0.10753 1.03026,-0.31276 0.19477,-0.14101 0.42889,-0.58003 0.42889,-0.58003 0.50426,-0.67615 1.62027,-5.55705 4.13396,-18.07986 l 3.44323,-17.15366 h -9.80429 -9.80428 l -0.404061,2.02847 c -2.469488,12.39753 -6.530699,20.46298 -14.514229,28.82483 -5.436434,5.69404 -10.770841,9.59859 -17.451731,12.77385 -1.90303,0.90447 -3.81415,1.46916 -3.81415,1.46916 0,0 -0.56127,-0.96528 -0.90379,-1.40398 -0.23031,-0.29497 -0.4984,-0.55943 -0.76844,-0.81852 -0.3662,-0.35135 -0.75153,-0.68371 -1.15215,-0.99525 -0.38766,-0.30147 -1.20801,-0.84332 -1.20801,-0.84332 l 2.00338,-0.61897 c 13.447515,-4.15483 26.06675,-16.70566 30.527601,-30.36212 0.71175,-2.17901 2.34383,-9.0842 2.34383,-9.91661 0,-0.0756 -5.21639,-0.13756 -11.591961,-0.13756 h -11.59199 l 0.56768,-2.48875 0.56767,-2.48875 11.52234,0.0282 11.52234,0.0282 0.358971,-1.68456 c 0.19743,-0.92651 0.76758,-3.90706 1.267018,-6.62345 0.49943,-2.71639 1.026592,-5.54979 1.171472,-6.29644 l 0.246719,-1.42437 2.750891,0.0132 2.70895,0.008 c 0,0 -0.61401,3.71371 -1.39491,7.38128 -0.78091,3.66757 -1.5079,7.10487 -1.61554,7.63845 l -0.195692,0.97014 h 12.375252 c 12.36934,0.24602 12.36934,0.24602 12.36934,0.24602 0,1.16662 -7.99034,39.38863 -8.41354,40.34186 -0.14344,0.38707 -0.0899,0.25842 -0.14344,0.38707 -0.22321,0.65168 -0.4451,1.38606 -0.84299,1.98462 -0.43242,0.65051 -1.03028,1.18408 -1.63411,1.6796 -0.52475,0.43063 -1.11081,0.78758 -1.70871,1.10795 -0.59789,0.32037 -1.21537,0.58503 -1.82618,0.77369 -2.32357,0.71768 -8.35568,1.40793 -8.35568,0.95614 0,-0.13479 0.1457,-0.39774 0.35263,-1.21954"
       style="fill:#f7580d;fill-opacity:1;stroke:#f7580d;stroke-width:5.31993;stroke-linecap:round;stroke-linejoin:round;stroke-miterlimit:4;stroke-dasharray:none;stroke-opacity:1;paint-order:normal;filter:url(#filter4409)" />
    <path
       style="fill:#ffffff;fill-opacity:1;stroke:#000000;stroke-width:4;stroke-linecap:round;stroke-linejoin:round;stroke-miterlimit:4;stroke-dasharray:none;stroke-opacity:1;paint-order:stroke fill markers"
       d="m 59.77918,82.191226 c 0.34124,-1.35525 0.38984,-2.97576 -0.0707,-4.31274 l -0.64693,-1.47012 2.57315,-0.0573 2.57318,-0.0573 c 0,0 1.71572,-0.0287 2.57317,-0.0573 0.57245,-0.0192 1.11434,0.007 1.67765,-0.0963 0.40111,-0.0738 0.87033,-0.12532 1.20069,-0.3645 0.22699,-0.16433 0.49984,-0.67598 0.49984,-0.67598 0.58768,-0.78801 1.88831,-6.47635 4.81784,-21.07079 L 78.9899,34.037526 H 67.5637 56.13751 l -0.4709,2.36404 c -2.87802,14.44844 -7.611072,23.84815 -16.915302,33.59329 -6.33578,6.63599 -12.552654,11.18647 -20.338747,14.88701 -2.217852,1.05409 -4.445122,1.7122 -4.445122,1.7122 0,0 -0.654122,-1.12497 -1.053308,-1.63624 -0.268408,-0.34377 -0.580844,-0.65196 -0.89556,-0.95392 -0.426781,-0.40948 -0.87585,-0.79681 -1.342743,-1.1599 -0.451796,-0.35134 -1.4078554,-0.98283 -1.4078554,-0.98283 l 2.3348004,-0.72135 c 15.672121,-4.84217 30.378945,-19.46927 35.577745,-35.3849 0.82949,-2.53948 2.73156,-10.58699 2.73156,-11.55709 0,-0.0881 -6.07933,-0.16033 -13.5096,-0.16033 H 22.892804 l 0.661581,-2.900459 0.66158,-2.900461 13.428473,0.0329 13.42847,0.0329 0.41835,-1.96324 c 0.23009,-1.07976 0.89456,-4.55339 1.476622,-7.71915 0.58205,-3.16576 1.19642,-6.46789 1.36526,-7.33806 l 0.28754,-1.6600003 3.20597,0.0154 3.15709,0.009 c 0,0 -0.71559,4.3280603 -1.62567,8.6023603 -0.9101,4.2743 -1.75736,8.28021 -1.8828,8.90206 l -0.22806,1.13063 h 14.42247 c 14.41558,0.28673 14.41558,0.28673 14.41558,0.28673 0,1.359621 -9.31217,45.90463 -9.80538,47.01556 -0.16717,0.4511 -0.10477,0.30116 -0.16717,0.4511 -0.26013,0.75948 -0.51873,1.61535 -0.98244,2.31293 -0.50396,0.75813 -1.20072,1.37997 -1.90444,1.95745 -0.61156,0.50188 -1.29457,0.91787 -1.99138,1.29125 -0.6968,0.37336 -1.41643,0.6818 -2.12828,0.90167 -2.70796,0.83641 -9.73795,1.64084 -9.73795,1.11432 0,-0.15709 0.1698,-0.46353 0.41096,-1.42129"
       id="path98-3" />
  </g>
</svg>
