<?xml version="1.0" encoding="UTF-8" standalone="no"?>
<svg
   width="330.03128mm"
   height="39.18655mm"
   viewBox="0 0 330.03128 39.18655"
   version="1.1"
   id="gameover"
   xmlns:xlink="http://www.w3.org/1999/xlink"
   xmlns="http://www.w3.org/2000/svg"
   xmlns:svg="http://www.w3.org/2000/svg">
  <defs>
    <linearGradient id="text-gradient" x1="50%" y1="0%" x2="50%" y2="100%">
      <stop offset="0%" stop-color="#ecb711">
        <animate attributeName="stop-color" values="#ecb711; #8a1201; #ecb711" dur="3.5s" repeatCount="indefinite" />
      </stop>
      <stop offset="100%" stop-color="#800000"></stop>
    </linearGradient>
  </defs>
  <path
     id="game"
     fill="url('#text-gradient')"
     d="m 11.72846,2.8218527 v 4.98212 H 6.7019002 V 31.65731 32.27484 H 11.59617 v 4.40904 h 24.2502 v -4.71755 h 4.54132 V 17.592013 H 21.42864 v 5.158857 h 9.21495 v 9.1271 H 16.75451 V 8.6416527 h 13.933 V 12.786103 H 40.2554 V 7.6716827 h -4.71754 v -4.84983 z m 95.88354,0.23461 v 4.80126 h -4.77024 V 12.815043 H 97.978488 V 7.7641827 h -4.80125 v -4.67672 h -9.75858 V 36.7278 37.0084 h 9.91412 V 17.397703 h 4.73924 v 5.050858 h 5.206402 v -4.676718 h 4.17804 V 36.75881 h 9.94513 V 3.0564627 Z m 14.27924,0 V 36.63427 h 33.79638 v -4.9258 H 131.61881 V 22.167961 H 150.6993 V 17.584773 H 131.80588 V 7.7951927 h 23.81921 v -4.73873 z m -71.84729,0.03 v 5.02605 h -4.9382 V 36.86012 h 9.83196 v -9.5679 h 14.197585 v 9.34776 h 9.788553 V 8.0246327 h -4.850354 v -4.9382 z m 4.89376,4.76146 H 68.915151 V 21.913221 H 54.93771 V 8.1125127 Z" />
  <path
     id="over"
     fill="url('#text-gradient')"
     d="m 212.20917,2.8260027 v 0.062 18.9249403 h 4.77025 v 4.98833 h 4.80125 v 4.77025 h 4.73925 v 4.76973 h 4.9258 v -4.6762 h 4.86378 v -4.77025 h 4.58319 v -4.61419 h 4.77025 V 3.0440627 h -9.47798 V 22.062023 h -4.52117 v 5.17539 h -5.14387 v -5.01933 H 221.8122 V 2.8259827 Z m 38.31703,0.062 v 0.0315 33.6713303 h 33.79639 v -4.86379 h -24.06881 v -9.38444 h 19.3921 v -5.05034 H 260.16024 V 7.6272227 h 24.16235 v -4.73924 z m -71.77029,0.0315 v 5.05034 h -5.11286 V 31.696043 h 4.77025 v 4.98832 h 24.16235 v -4.73873 h 4.70772 V 7.7207627 h -4.48965 v -4.80126 z m 110.11834,0 V 36.684363 h 10.00818 v -9.78958 h 9.38444 v 4.67672 h 4.86378 v 4.9568 h 9.47798 v -4.61419 h -4.55218 v -9.72705 h 4.67672 V 7.6892327 h -4.77025 v -4.76973 z m -105.53516,4.98836 h 14.68438 V 31.696083 H 183.33909 V 7.9698827 Z m 115.4498,0.15555 h 14.31024 V 22.000033 h -14.31024 z" />
</svg>
