<?xml version="1.0" encoding="UTF-8"?>
<svg id="RegularsLogo" version="1.1" viewBox="0 0 308 77" xml:space="preserve" xmlns="http://www.w3.org/2000/svg" xmlns:xlink="http://www.w3.org/1999/xlink">
  <defs id="mydefs">
    <linearGradient id="shineGradient" x1="0" x2="0" y1="1" y2="0" gradientUnits="objectBoundingBox">
      <stop stop-color="#fff" stop-opacity=".5" offset="0"/>
      <stop stop-color="#fff" stop-opacity="0" offset="1"/>
    </linearGradient>
    <linearGradient id="theGradient" x1="0" x2="0" y1="1" y2="0" gradientUnits="objectBoundingBox">
      <stop stop-color="#221e7a" offset="0"/>
      <stop stop-color="#1e457a" offset=".5"/>
      <stop stop-color="#0e243c" offset="1"/>
    </linearGradient>
    <linearGradient id="regularsGradient" x1="0" x2="0" y1="1" y2="0" gradientUnits="objectBoundingBox">
      <stop stop-color="#ab7203" offset="0"/>
      <stop stop-color="#ab2203" offset=".5"/>
      <stop stop-color="#530d01" offset="1"/>
    </linearGradient>
    <filter id="shadowBlur" x="0" y="0" width="308" height="77" color-interpolation-filters="sRGB" filterUnits="userSpaceOnUse">
      <feGaussianBlur stdDeviation=".3"/>
    </filter>
  </defs>
  <g id="logo">
    <path id="XonoticLogo" d="m110 0.26c-16-0.04-32.8 4.04-50.5 4.27 24.3 8.17 29.9 0.95 48.3 10-0.44-7.96 13.8-7.72 12.4 1.94-1.75 12.2-43.8-3.18-66.7 15.8 24.7-4.68 40.5 4.53 49.2 1.58-4.96-6.3 9.5-11.2 10.7-1.57 1.54 12.6-31.6 2.5-46.9 25.7 17.2-8.38 26.5-4 38-6.28-3.67-4.06 5.76-9.18 8.8-3.1 5.38 10.8-18.2 6.06-18.1 24.4 6.58-7.92 13.4-6.26 17.6-6.12-0.06-6.56 7-8.09 9.4-1.4 1.5 4.23 9.57 3.75 18.6 5.46a35.5 35.5 0 0 1-2.65-64.4c-9.1-4.72-18.5-6.23-28.1-6.26zm88.4 0c-9.62 0.03-19 1.54-28.1 6.26a35.5 35.5 0 0 1-2.65 64.4c8.98-1.7 17-1.23 18.6-5.45 2.4-6.7 9.45-5.17 9.39 1.4 4.21-0.15 11-1.81 17.6 6.11 0.09-18.3-23.5-13.6-18.1-24.4 3.03-6.08 12.5-0.96 8.79 3.1 11.6 2.29 20.8-2.1 38 6.28-15.3-23.2-48.5-13-46.9-25.7 1.18-9.66 15.6-4.73 10.7 1.57 8.7 2.95 24.6-6.26 49.2-1.58-23-19-65-3.59-66.7-15.8-1.38-9.66 12.9-9.9 12.4-1.94 18.4-9.05 24-1.83 48.3-10-17.7-0.23-34.5-4.31-50.5-4.27zm-58.7 7.24a33.9 33.9 0 1 0 48.3 30.6 33.9 33.9 0 0 0-19.4-30.6 29.6 29.6 0 0 1-8.85 55c-1.82 0.35-4.04 8.47-5.63 8.47s-3.8-8.12-5.63-8.47a29.6 29.6 0 0 1-8.85-55zm-70.2 3.7c-21.8 0.59-43.8 11.6-69.1 14.2 32.6 6.04 32-6.5 64.4-4.9-15.5-5.91 9.13-10.4 6.6-1.1 10 1 8.89-1.86 28-0.77a55.1 55.1 0 0 0-29.9-7.42zm169 0a55.1 55.1 0 0 0-29.9 7.43c19.1-1.09 17.9 1.77 28 0.77-2.54-9.26 22.1-4.81 6.59 1.1 32.4-1.6 31.8 10.9 64.4 4.9-25.3-2.62-47.3-13.6-69.1-14.2zm-75.9 7.8c-9 1.44-20.5 12.7-31.7 21.7l13.8-6.36-7.98 8.47 6.89-3.22c-2.26 4.45-2.02 12.2-9.46 13.7a28 28 0 0 0 14.4 7.62c2.65 0.5 4.5 7.92 5.3 7.92s2.65-7.41 5.3-7.92a28 28 0 0 0 14.9-8.07c-19.7 0.25-18.4-19.7-1.05-24.1-1.34-1.25-5.8-1.01-9.46-0.44 0.64-4.26 6.67-6.3 11.1-5.74-2.55-2.6-5.66-4.46-10.8-2.31zm-2.48 3.58 1.34 1.32c-1.75 1.48-3.3 1.58-4.78 0.26zm-118 10.9c-9.16-0.5-17.9 11.2-28.8 10.7 18.5 1.6 23.9-5.73 32.8-9.65a10.4 10.4 0 0 0-3.96-1.03zm223 0c-1.31 0.07-2.63 0.4-3.96 1.03 8.9 3.92 14.3 11.2 32.8 9.65-10.9 0.51-19.7-11.2-28.8-10.7zm-190 1.37c-24.8 0.45-35 19.6-59.6 22.9 30 4.09 23-7.57 52-11.7-14.5-3.54 6.9-10.8 5.75-1.88 9.16-0.65 2.78-4.1 21.8-6.13-7.67-2.33-14.2-3.22-19.9-3.12zm156 0c-5.74-0.1-12.3 0.8-19.9 3.12 19 2.04 12.6 5.48 21.8 6.13-1.14-8.97 20.3-1.66 5.75 1.88 29 4.17 22 15.8 52 11.7-24.6-3.22-34.7-22.4-59.6-22.9zm-138 20.6c-18.4-0.45-22.4 17.5-35.5 20.8 16.6 2.12 13.2-6.5 29.5-9.3-15.1 1 1.46-13.5 3.3-4.03 4.8-0.94 2.65-3.48 11.6-6.06a36.4 36.4 0 0 0-8.84-1.42zm121 0c-2.63 0.06-5.55 0.5-8.84 1.41 8.9 2.58 6.75 5.12 11.6 6.06 1.84-9.48 18.4 5.03 3.3 4.04 16.3 2.8 12.9 11.4 29.5 9.3-13-3.28-17.1-21.3-35.5-20.8zm-155 6.58c-5.6-0.31-11.6 8.72-18.5 10.1 14.8-1.45 14.5-5.4 21.1-9.25a5.11 5.11 0 0 0-2.57-0.88zm-18.5 10.1c-0.6 0.06-1.07 0.14-1.72 0.2 0.58 0 1.15-0.08 1.72-0.2zm208-10.1a5.1 5.1 0 0 0-2.57 0.88c6.57 3.85 6.26 7.8 21.1 9.25-6.9-1.4-12.9-10.4-18.5-10.1zm18.5 10.1c0.57 0.12 1.14 0.2 1.72 0.2-0.65-0.06-1.11-0.14-1.72-0.2z" fill="#fff" fill-rule="evenodd" opacity=".25" stroke="#000" stroke-linecap="round" stroke-linejoin="bevel" stroke-width=".5"/>

    <symbol id="the">
      <path d="m83.3 33.3v17.9h4.76v-7.17h3.89v7.17h4.78v-17.9h-4.78v7.4h-3.9v-7.4zm15.2 0v17.9h9.61l1.12-3.87h-5.78v-3.36h5.81v-3.33h-5.88v-3.53h5.85l-1.12-3.83zm-30.1 0.112v3.73l4.21 0.047v13.9h4.57v-13.9h4.4l-1.01-3.77z"/>
    </symbol>
    <symbol id="regulars">
      <path d="m120 33.3-1.07 3.57h1.26v14.4h4.36v-4.57h4.85v4.57h4.32v-5.15l-1.05-1.06 1.06-1.06v-9.8l-0.886-0.886zm16 0v17.9h9.7l1.12-3.87h-5.79v-3.36h5.82v-3.33h-5.88v-3.53h5.84l-1.12-3.83zm13.2 0-0.635 0.55v16.7l0.691 0.69h10.4l0.943-0.942v-9.52h-4.12v6.34l-3.32-0.047v-9.8h7.46l-1.12-3.89zm13.6 0v17.3l0.653 0.662h12l0.672-0.662v-17.3h-4.61v14h-4.1v-14zm15.4 0v17.9h10.7l1.47-4.1h-7.61v-13.8zm19.7 0-6.6 17.9h4.62l0.635-1.65h7.09l0.56 1.65h4.52l-6.48-17.9zm12.4 0 0.03 17.9h4.26v-4.57h4.85v4.57h4.32v-5.15l-1.06-1.06 1.07-1.06v-9.8l-0.896-0.886zm16.2 0-0.672 0.672v9.12l0.896 0.896h6.9v3.32l-7.8-0.047 0.83 3.96h10.5l0.644-0.644v-9.52l-0.952-0.942h-6.9v-2.9l7.86-0.01-0.998-3.87zm-102 3.96h4.18l-0.03 5.22h-4.15zm90 0h4.19l-0.03 5.22h-4.16zm-14.9 2.12 2.23 6.6-4.34-0.028z" />
    </symbol>

    <use id="theShadow" href="#the" stroke-width="1.5" fill="black" stroke="black" stroke-linejoin="miter-clip" transform="translate(1 1)" filter="url(#shadowBlur)" opacity=".8" />
    <use id="regularsShadow" href="#regulars" stroke-width="1.5" fill="black" stroke="black" stroke-linejoin="miter-clip" transform="translate(1 1)" filter="url(#shadowBlur)" opacity=".8"/>

    <use id="theOuter" href="#the" fill="url(#theGradient)" stroke-width="1.5" stroke-linejoin="round" stroke="url(#theGradient)" />
    <use id="regularsOuter" href="#regulars" fill="url(#regularsGradient)" stroke-linejoin="round" stroke-width="1.5" stroke="url(#regularsGradient)"/>

    <use id="theInner" href="#the" fill="url(#shineGradient)" stroke="none" />
    <use id="regularsInner" href="#regulars" fill="url(#shineGradient)" stroke="none" />
  </g>
</svg>
